<?xml version="1.0" encoding="UTF-8"?>
<svg id="Layer_1" data-name="Layer 1" xmlns="http://www.w3.org/2000/svg" viewBox="0 0 3474.15 900">
  <defs>
    <style>
      .cls-2 {
        fill: red;
      }
      .cls-2, .cls-3 {
        fill-rule: evenodd;
      }
    </style>
  </defs>
  <path id="Shape_3_copy_13" data-name="Shape 3 copy 13" class="cls-3" d="M1084.33,629.92c-42.13,0-78.89-8.17-110.27-24.5-30.94-16.77-55.03-40.2-72.22-72.2c-17.19-30.09-25.79-65.78-25.79-107.04s8.39-76.31,25.15-106.4c17.19-30.09,41.49-53.31,72.86-69.65,31.38-16.33,68.36-24.5,110.91-24.5s78.68,8.17,109.63,24.5c30.94,16.34,54.81,39.56,71.57,69.65,16.76,30.09,25.15,65.77,25.15,107.04s-8.39,76.52-25.15,107.04c-16.76,30.09-40.85,53.31-72.22,69.65-30.95,16.33-67.5,24.5-109.63,24.5ZM1084.33,537.06c32.24,0,56.96-9.68,74.16-29.02,17.19-19.77,25.79-46.43,25.79-79.96s-8.6-59.76-25.79-78.67c-17.2-19.35-41.92-29.02-74.16-29.02s-57.81,9.67-75.45,29.02c-17.19,18.91-25.79,45.14-25.79,78.67s8.6,60.19,25.79,79.96c17.63,19.34,42.78,29.02,75.45,29.02ZM1463.56,856.74h-107.04l-2.33-515.72h-52.88v-105.75h108.33v63.19h27.08c13.76-22.35,32.03-39.76,54.81-52.23,23.21-12.46,51.16-18.7,83.83-18.7,39.99,0,73.73,8.39,101.25,25.15,27.51,16.77,48.36,40.2,62.54,70.29,14.19,30.09,21.29,65.34,21.29,105.75s-6.88,75.88-20.64,106.4c-13.75,30.09-33.74,53.52-59.96,70.29-26.23,16.33-58.04,24.5-95.44,24.5-28.37,0-52.66-5.16-72.86-15.48-20.21-10.74-36.11-25.79-47.73-45.14h-2.58l2.33,287.44ZM1555.39,537.06c32.67,0,57.18-9.68,73.51-29.02,16.34-19.34,24.51-45.78,24.51-79.32s-8.17-59.97-24.51-79.32c-16.33-19.35-40.84-29.02-73.51-29.02-28.8,0-51.8,8.16-69,24.5-16.76,15.9-25.15,38.04-25.15,66.41v34.82c0,28.37,8.39,50.73,25.15,67.07,17.2,15.9,40.2,23.86,69,23.86ZM1965.29,629.92c-56.75,0-101.67-11.83-134.77-35.47-32.67-24.07-50.3-57.61-52.88-100.59h103.17c3.44,18.48,12.26,32.23,26.44,41.27,14.61,9.03,35.47,13.54,62.55,13.54,44.28,0,66.41-12.25,66.41-36.75,0-9.89-3.44-17.63-10.31-23.21-6.45-6.02-17.42-10.54-32.89-13.55l-86.41-16.76c-77.38-15.05-116.08-51.37-116.08-108.98,0-36.97,14.84-66.42,44.5-88.35,29.66-22.35,70.71-33.53,123.16-33.53s93.29,11.4,123.82,34.18c30.52,22.78,47.29,54.6,50.3,95.43h-103.17c-4.73-18.05-13.12-31.16-25.16-39.33-12.03-8.17-29.44-12.26-52.23-12.26-19.77,0-34.81,3.01-45.14,9.03-10.32,5.59-15.47,14.18-15.47,25.79,0,8.17,3.22,15.04,9.67,20.63,6.45,5.59,16.34,9.68,29.66,12.26l88.35,16.76c40.42,8.17,70.07,21.28,88.99,39.34,18.91,18.05,28.37,42.56,28.37,73.51,0,39.99-14.84,71.15-44.5,93.51-29.23,22.35-71.36,33.53-126.39,33.53ZM2349.38,629.92c-40.42,0-75.88-8.17-106.41-24.51-30.08-16.76-53.74-40.19-70.93-70.28-16.76-30.09-25.15-65.56-25.15-106.4s8.39-76.31,25.15-106.4c16.76-30.09,40.42-53.31,70.93-69.65,30.52-16.76,65.99-25.15,106.41-25.15,51.16,0,93.28,12.9,126.39,38.7,33.1,25.79,53.95,61.25,62.55,106.4h-.03l.08.13-245.59,147.04c15.59,11.51,34.46,17.27,56.6,17.27,45.57,0,73.29-19.34,83.19-58.04h107.69c-7.74,47.29-28.16,84.26-61.26,110.91-33.1,26.65-76.31,39.99-129.61,39.99ZM2401.61,333.93c-13.76-9.02-31.17-13.54-52.23-13.54-28.8,0-52.02,9.45-69.65,28.37-17.19,18.91-25.79,45.57-25.79,79.96,0,6.08.27,11.91.83,17.51l163.05-97.61c-4.56-5.7-9.96-10.59-16.21-14.69ZM2739.99,629.92c-40.41,0-75.88-8.17-106.40-24.51-30.09-16.76-53.74-40.19-70.93-70.28-16.77-30.09-25.15-65.56-25.15-106.4s8.38-76.31,25.15-106.4c16.76-30.09,40.41-53.31,70.93-69.65,30.52-16.76,65.99-25.15,106.4-25.15,51.17,0,93.29,12.9,126.4,38.7,33.1,25.79,53.95,61.25,62.55,106.4h-.03l-245.65,147.07c15.62,11.58,34.53,17.37,56.73,17.37,45.58,0,73.3-19.34,83.19-58.04h107.7c-7.74,47.29-28.16,84.26-61.26,110.91-33.1,26.65-76.31,39.99-129.62,39.99ZM2792.23,333.93c-13.76-9.02-31.17-13.54-52.24-13.54-28.8,0-52.02,9.45-69.64,28.37-17.19,18.91-25.79,45.57-25.79,79.96,0,6.44.3,12.61.93,18.5l163.52-97.9c-4.68-6-10.27-11.13-16.77-15.4ZM3055.63,622.18h-107.04l3.97-620.84h107.04l-3.97,372.57h2.58l152.19-138.64h127.68l-164.44,148.31,176.69,238.6h-125.11l-127.03-173.47-42.57,34.82v138.64Z"/>
  <path class="cls-2" d="M857.41,635.32v223.65h-228.23v-217.48C205.56,436.69,1.72,857.6,1.72,857.6L1.48,1.61,0,.11l855.68-.11c-386.74,125.46-254.27,549.32-222.87,635.32h224.6Z"/>
  <polygon class="cls-2" points="1.48 1.58 1.48 1.61 629.18 640.93 639.52 652.03 1.48 1.58"/>
</svg>
